<svg width="40" height="40" viewBox="0 0 40 40" fill="none" xmlns="http://www.w3.org/2000/svg">
<mask id="mask0_1212_3085" style="mask-type:alpha" maskUnits="userSpaceOnUse" x="0" y="0" width="40" height="40">
<path d="M0 0H40V40H0V0Z" fill="#D9D9D9"/>
</mask>
<g mask="url(#mask0_1212_3085)">
<path d="M9.14734 3.13684L8.97056 2.96006L8.79379 3.13684L3.13693 8.79369L2.96015 8.97047L3.13693 9.14725L5.78858 11.7989L3.13693 14.4505L2.96015 14.6273L3.13693 14.8041L5.78858 17.4558L3.13693 20.1074L2.96015 20.2842L3.13693 20.461L5.78858 23.1126L3.13693 25.7643L2.96015 25.941L3.13693 26.1178L5.78858 28.7695L3.13693 31.4211L2.96015 31.5979L3.13693 31.7747L8.79379 37.4315L8.97056 37.6083L9.14734 37.4315L11.799 34.7799L14.4506 37.4315L14.6274 37.6083L14.8042 37.4315L17.4558 34.7799L20.1075 37.4315L20.2843 37.6083L20.461 37.4315L23.1127 34.7799L25.7643 37.4315L25.9411 37.6083L26.1179 37.4315L28.7696 34.7799L31.4212 37.4315L31.598 37.6083L31.7748 37.4315L37.4316 31.7747L37.6084 31.5979L37.4316 31.4211L34.78 28.7695L37.4316 26.1178L37.6084 25.941L37.4316 25.7643L34.78 23.1126L37.4316 20.461L37.6084 20.2842L37.4316 20.1074L34.78 17.4558L37.4316 14.8041L37.6084 14.6273L37.4316 14.4505L34.78 11.7989L37.4316 9.14725L37.6084 8.97047L37.4316 8.79369L31.7748 3.13684L31.598 2.96006L31.4212 3.13684L28.7696 5.78849L26.1179 3.13684L25.9411 2.96006L25.7643 3.13684L23.1127 5.78849L20.461 3.13684L20.2843 2.96006L20.1075 3.13684L17.4558 5.78849L14.8042 3.13684L14.6274 2.96006L14.4506 3.13684L11.799 5.78849L9.14734 3.13684Z" fill="url(#paint0_linear_1212_3085)" stroke="black" stroke-width="0.5"/>
<path d="M20.2841 35.7698L17.491 32.9767L17.4557 32.9414L17.4203 32.9767L14.6273 35.7698L11.8342 32.9767L11.7988 32.9414L11.7635 32.9767L8.97055 35.7697L4.79848 31.5979L7.59155 28.8048L7.62691 28.7695L7.59155 28.7341L4.79848 25.941L7.59155 23.148L7.62691 23.1126L7.59155 23.0773L4.79848 20.2842L7.59155 17.4911L7.62691 17.4558L7.59155 17.4204L4.79848 14.6273L7.59155 11.8343L7.62691 11.7989L7.59155 11.7635L4.79848 8.97047L8.97041 4.79854L11.7635 7.59161L11.7988 7.62697L11.8342 7.59161L14.6273 4.79854L17.4203 7.59161L17.4557 7.62697L17.491 7.59161L20.2841 4.79854L23.0772 7.59161L23.1125 7.62697L23.1479 7.59161L25.941 4.79854L28.734 7.59161L28.7694 7.62697L28.8048 7.59161L31.598 4.7984L35.7698 8.97047L32.9767 11.7635L32.9413 11.7989L32.9767 11.8343L35.7698 14.6273L32.9767 17.4204L32.9413 17.4558L32.9767 17.4911L35.7698 20.2842L32.9767 23.0773L32.9413 23.1126L32.9767 23.148L35.7698 25.941L32.9767 28.7341L32.9413 28.7695L32.9767 28.8048L35.7698 31.5979L31.5978 35.7698L28.8048 32.9767L28.7694 32.9414L28.734 32.9767L25.941 35.7698L23.1479 32.9767L23.1125 32.9414L23.0772 32.9767L20.2841 35.7698Z" fill="url(#paint1_linear_1212_3085)" stroke="black" stroke-width="0.1"/>
<path d="M20.284 33.7724L17.6076 31.096L17.5722 31.0606L17.5369 31.096L14.8603 33.7725L12.1839 31.0961L12.1485 31.0607L12.1132 31.0961L9.43687 33.7724L6.79579 31.1313L9.4721 28.455L9.50746 28.4197L9.4721 28.3843L6.79567 25.7079L9.4721 23.0314L9.50746 22.9961L9.4721 22.9607L6.79567 20.2843L9.4721 17.6079L9.50746 17.5725L9.4721 17.5372L6.79567 14.8607L9.4721 12.1843L9.50746 12.1489L9.4721 12.1136L6.79567 9.43715L9.43675 6.79607L12.1132 9.47251L12.1485 9.50786L12.1839 9.47251L14.8603 6.79607L17.5368 9.47251L17.5721 9.50786L17.6075 9.47251L20.2839 6.79607L22.9603 9.47251L22.9957 9.50786L23.031 9.47251L25.7075 6.79607L28.3839 9.47251L28.4193 9.50786L28.4546 9.47251L31.1309 6.7962L33.772 9.43727L31.0957 12.1136L31.0603 12.1489L31.0957 12.1843L33.7723 14.8606L31.0957 17.5372L31.0603 17.5725L31.0957 17.6079L33.7721 20.2843L31.0958 22.9606L31.0605 22.996L31.0958 23.0313L33.7723 25.7078L31.0958 28.3842L31.0605 28.4195L31.0958 28.4549L33.7723 31.1313L31.1312 33.7724L28.4547 31.096L28.4194 31.0606L28.384 31.096L25.7076 33.7724L23.0312 31.096L22.9958 31.0606L22.9605 31.096L20.284 33.7724Z" fill="url(#paint2_linear_1212_3085)" stroke="black" stroke-width="0.1"/>
<path d="M11.7035 17.377L8.86706 14.5406L14.54 8.86766L17.3764 11.7041L17.4118 11.7395L17.4471 11.7041L20.2836 8.86766L23.12 11.7041L23.1554 11.7395L23.1908 11.7041L26.0272 8.86766L31.7001 14.5406L28.8637 17.377L28.8283 17.4124L28.8637 17.4477L31.7001 20.2842L28.8637 23.1206L28.8283 23.156L28.8637 23.1913L31.7001 26.0278L26.0272 31.7007L23.1908 28.8643L23.1554 28.8289L23.12 28.8643L20.2836 31.7007L17.4471 28.8643L17.4118 28.8289L17.3764 28.8643L14.54 31.7007L8.86706 26.0278L11.7035 23.1913L11.7389 23.156L11.7035 23.1206L8.86706 20.2842L11.7035 17.4477L11.7389 17.4124L11.7035 17.377Z" fill="url(#paint3_linear_1212_3085)"/>
<path d="M11.7035 17.377L8.86706 14.5406L14.54 8.86766L17.3764 11.7041L17.4118 11.7395L17.4471 11.7041L20.2836 8.86766L23.12 11.7041L23.1554 11.7395L23.1908 11.7041L26.0272 8.86766L31.7001 14.5406L28.8637 17.377L28.8283 17.4124L28.8637 17.4477L31.7001 20.2842L28.8637 23.1206L28.8283 23.156L28.8637 23.1913L31.7001 26.0278L26.0272 31.7007L23.1908 28.8643L23.1554 28.8289L23.12 28.8643L20.2836 31.7007L17.4471 28.8643L17.4118 28.8289L17.3764 28.8643L14.54 31.7007L8.86706 26.0278L11.7035 23.1913L11.7389 23.156L11.7035 23.1206L8.86706 20.2842L11.7035 17.4477L11.7389 17.4124L11.7035 17.377Z" fill="url(#paint4_linear_1212_3085)"/>
<path d="M11.7035 17.377L8.86706 14.5406L14.54 8.86766L17.3764 11.7041L17.4118 11.7395L17.4471 11.7041L20.2836 8.86766L23.12 11.7041L23.1554 11.7395L23.1908 11.7041L26.0272 8.86766L31.7001 14.5406L28.8637 17.377L28.8283 17.4124L28.8637 17.4477L31.7001 20.2842L28.8637 23.1206L28.8283 23.156L28.8637 23.1913L31.7001 26.0278L26.0272 31.7007L23.1908 28.8643L23.1554 28.8289L23.12 28.8643L20.2836 31.7007L17.4471 28.8643L17.4118 28.8289L17.3764 28.8643L14.54 31.7007L8.86706 26.0278L11.7035 23.1913L11.7389 23.156L11.7035 23.1206L8.86706 20.2842L11.7035 17.4477L11.7389 17.4124L11.7035 17.377Z" stroke="black" stroke-width="0.1"/>
<path d="M14.1113 17.7658L11.6636 15.3182L15.3174 11.6644L17.7651 14.1121L17.8004 14.1474L17.8358 14.1121L20.2834 11.6644L22.731 14.1121L22.7664 14.1474L22.8018 14.1121L25.2494 11.6644L28.9032 15.3182L26.4555 17.7658L26.4202 17.8012L26.4555 17.8365L28.9032 20.2842L26.4555 22.7318L26.4202 22.7672L26.4555 22.8025L28.9032 25.2502L25.2494 28.9039L22.8018 26.4563L22.7664 26.4209L22.731 26.4563L20.2834 28.9039L17.8358 26.4563L17.8004 26.4209L17.7651 26.4563L15.3174 28.9039L11.6636 25.2502L14.1113 22.8025L14.1466 22.7672L14.1113 22.7318L11.6636 20.2842L14.1113 17.8365L14.1466 17.8012L14.1113 17.7658Z" fill="url(#paint5_linear_1212_3085)"/>
<path d="M14.1113 17.7658L11.6636 15.3182L15.3174 11.6644L17.7651 14.1121L17.8004 14.1474L17.8358 14.1121L20.2834 11.6644L22.731 14.1121L22.7664 14.1474L22.8018 14.1121L25.2494 11.6644L28.9032 15.3182L26.4555 17.7658L26.4202 17.8012L26.4555 17.8365L28.9032 20.2842L26.4555 22.7318L26.4202 22.7672L26.4555 22.8025L28.9032 25.2502L25.2494 28.9039L22.8018 26.4563L22.7664 26.4209L22.731 26.4563L20.2834 28.9039L17.8358 26.4563L17.8004 26.4209L17.7651 26.4563L15.3174 28.9039L11.6636 25.2502L14.1113 22.8025L14.1466 22.7672L14.1113 22.7318L11.6636 20.2842L14.1113 17.8365L14.1466 17.8012L14.1113 17.7658Z" fill="url(#paint6_linear_1212_3085)"/>
<path d="M14.1113 17.7658L11.6636 15.3182L15.3174 11.6644L17.7651 14.1121L17.8004 14.1474L17.8358 14.1121L20.2834 11.6644L22.731 14.1121L22.7664 14.1474L22.8018 14.1121L25.2494 11.6644L28.9032 15.3182L26.4555 17.7658L26.4202 17.8012L26.4555 17.8365L28.9032 20.2842L26.4555 22.7318L26.4202 22.7672L26.4555 22.8025L28.9032 25.2502L25.2494 28.9039L22.8018 26.4563L22.7664 26.4209L22.731 26.4563L20.2834 28.9039L17.8358 26.4563L17.8004 26.4209L17.7651 26.4563L15.3174 28.9039L11.6636 25.2502L14.1113 22.8025L14.1466 22.7672L14.1113 22.7318L11.6636 20.2842L14.1113 17.8365L14.1466 17.8012L14.1113 17.7658Z" stroke="black" stroke-width="0.1"/>
<path d="M16.1625 18.5863L14.5354 16.9592L16.9584 14.5361L18.5856 16.1633L18.621 16.1986L18.6563 16.1633L20.2835 14.5361L21.9106 16.1633L21.946 16.1986L21.9813 16.1633L23.6085 14.5361L26.0316 16.9592L24.4044 18.5863L24.369 18.6217L24.4044 18.657L26.0316 20.2842L24.4044 21.9113L24.369 21.9467L24.4044 21.982L26.0316 23.6092L23.6085 26.0323L21.9813 24.4051L21.946 24.3698L21.9106 24.4051L20.2835 26.0323L18.6563 24.4051L18.621 24.3698L18.5856 24.4051L16.9584 26.0323L14.5354 23.6092L16.1625 21.982L16.1979 21.9467L16.1625 21.9113L14.5354 20.2842L16.1625 18.657L16.1979 18.6217L16.1625 18.5863Z" fill="url(#paint7_linear_1212_3085)"/>
<path d="M16.1625 18.5863L14.5354 16.9592L16.9584 14.5361L18.5856 16.1633L18.621 16.1986L18.6563 16.1633L20.2835 14.5361L21.9106 16.1633L21.946 16.1986L21.9813 16.1633L23.6085 14.5361L26.0316 16.9592L24.4044 18.5863L24.369 18.6217L24.4044 18.657L26.0316 20.2842L24.4044 21.9113L24.369 21.9467L24.4044 21.982L26.0316 23.6092L23.6085 26.0323L21.9813 24.4051L21.946 24.3698L21.9106 24.4051L20.2835 26.0323L18.6563 24.4051L18.621 24.3698L18.5856 24.4051L16.9584 26.0323L14.5354 23.6092L16.1625 21.982L16.1979 21.9467L16.1625 21.9113L14.5354 20.2842L16.1625 18.657L16.1979 18.6217L16.1625 18.5863Z" fill="url(#paint8_linear_1212_3085)"/>
<path d="M16.1625 18.5863L14.5354 16.9592L16.9584 14.5361L18.5856 16.1633L18.621 16.1986L18.6563 16.1633L20.2835 14.5361L21.9106 16.1633L21.946 16.1986L21.9813 16.1633L23.6085 14.5361L26.0316 16.9592L24.4044 18.5863L24.369 18.6217L24.4044 18.657L26.0316 20.2842L24.4044 21.9113L24.369 21.9467L24.4044 21.982L26.0316 23.6092L23.6085 26.0323L21.9813 24.4051L21.946 24.3698L21.9106 24.4051L20.2835 26.0323L18.6563 24.4051L18.621 24.3698L18.5856 24.4051L16.9584 26.0323L14.5354 23.6092L16.1625 21.982L16.1979 21.9467L16.1625 21.9113L14.5354 20.2842L16.1625 18.657L16.1979 18.6217L16.1625 18.5863Z" fill="url(#paint9_linear_1212_3085)"/>
<path d="M16.1625 18.5863L14.5354 16.9592L16.9584 14.5361L18.5856 16.1633L18.621 16.1986L18.6563 16.1633L20.2835 14.5361L21.9106 16.1633L21.946 16.1986L21.9813 16.1633L23.6085 14.5361L26.0316 16.9592L24.4044 18.5863L24.369 18.6217L24.4044 18.657L26.0316 20.2842L24.4044 21.9113L24.369 21.9467L24.4044 21.982L26.0316 23.6092L23.6085 26.0323L21.9813 24.4051L21.946 24.3698L21.9106 24.4051L20.2835 26.0323L18.6563 24.4051L18.621 24.3698L18.5856 24.4051L16.9584 26.0323L14.5354 23.6092L16.1625 21.982L16.1979 21.9467L16.1625 21.9113L14.5354 20.2842L16.1625 18.657L16.1979 18.6217L16.1625 18.5863Z" stroke="black" stroke-width="0.1"/>
<rect x="16.5551" y="20.2842" width="5.27384" height="5.27384" transform="rotate(-45 16.5551 20.2842)" fill="url(#paint10_linear_1212_3085)"/>
<rect x="16.5551" y="20.2842" width="5.27384" height="5.27384" transform="rotate(-45 16.5551 20.2842)" fill="url(#paint11_linear_1212_3085)"/>
<rect x="16.5551" y="20.2842" width="5.27384" height="5.27384" transform="rotate(-45 16.5551 20.2842)" stroke="black" stroke-width="0.1"/>
<rect x="18.9408" y="20.2842" width="1.9" height="1.9" transform="rotate(-45 18.9408 20.2842)" fill="url(#paint12_linear_1212_3085)"/>
<rect x="18.9408" y="20.2842" width="1.9" height="1.9" transform="rotate(-45 18.9408 20.2842)" fill="url(#paint13_linear_1212_3085)"/>
<rect x="18.9408" y="20.2842" width="1.9" height="1.9" transform="rotate(-45 18.9408 20.2842)" stroke="black" stroke-width="0.1"/>
<g filter="url(#filter0_d_1212_3085)">
<mask id="path-10-outside-1_1212_3085" maskUnits="userSpaceOnUse" x="4.28418" y="9.28418" width="30" height="23" fill="black">
<rect fill="white" x="4.28418" y="9.28418" width="30" height="23"/>
<path fill-rule="evenodd" clip-rule="evenodd" d="M19.7143 30.7392C20.1789 31.0491 20.685 31.2041 21.2325 31.2041H30.2975C30.845 31.2041 31.3428 31.0491 31.7908 30.7392C32.2554 30.4293 32.6204 30.0128 32.8859 29.4898C33.1514 28.9474 33.2841 28.3566 33.2841 27.7174V20.163H26.8379V22.5456H31.2681V27.7174C31.2681 28.0273 31.1686 28.2985 30.9694 28.531C30.7869 28.744 30.5629 28.8506 30.2975 28.8506H21.2325C20.9671 28.8506 20.7348 28.744 20.5357 28.531C20.3531 28.2985 20.2619 28.0273 20.2619 27.7174V13.7708C20.2619 13.4609 20.3531 13.1994 20.5357 12.9863C20.7348 12.7539 20.9671 12.6377 21.2325 12.6377H30.2975C30.5629 12.6377 30.7869 12.7539 30.9694 12.9863C31.1686 13.1994 31.2681 13.4609 31.2681 13.7708V14.6134H33.2841V13.7708C33.2841 13.1316 33.1514 12.5505 32.8859 12.0275C32.6204 11.4851 32.2554 11.059 31.7908 10.7491C31.3428 10.4391 30.845 10.2842 30.2975 10.2842H21.2325C20.8306 10.2842 20.451 10.3677 20.0938 10.5347V10.2842H18.0778V27.7174C18.0778 28.0273 17.9783 28.2985 17.7792 28.531C17.5967 28.744 17.3727 28.8506 17.1072 28.8506H8.27083C8.00535 28.8506 7.77305 28.744 7.57394 28.531C7.39143 28.2985 7.30017 28.0273 7.30017 27.7174V26.0613H5.28418V27.7174C5.28418 28.3566 5.41692 28.9474 5.6824 29.4898C5.94788 30.0128 6.30462 30.4293 6.75261 30.7392C7.2172 31.0491 7.72328 31.2041 8.27083 31.2041H17.1072C17.6547 31.2041 18.1525 31.0491 18.6005 30.7392C18.8091 30.6 18.9976 30.4394 19.1661 30.2573C19.3304 30.4394 19.5132 30.6 19.7143 30.7392Z"/>
</mask>
<path fill-rule="evenodd" clip-rule="evenodd" d="M19.7143 30.7392C20.1789 31.0491 20.685 31.2041 21.2325 31.2041H30.2975C30.845 31.2041 31.3428 31.0491 31.7908 30.7392C32.2554 30.4293 32.6204 30.0128 32.8859 29.4898C33.1514 28.9474 33.2841 28.3566 33.2841 27.7174V20.163H26.8379V22.5456H31.2681V27.7174C31.2681 28.0273 31.1686 28.2985 30.9694 28.531C30.7869 28.744 30.5629 28.8506 30.2975 28.8506H21.2325C20.9671 28.8506 20.7348 28.744 20.5357 28.531C20.3531 28.2985 20.2619 28.0273 20.2619 27.7174V13.7708C20.2619 13.4609 20.3531 13.1994 20.5357 12.9863C20.7348 12.7539 20.9671 12.6377 21.2325 12.6377H30.2975C30.5629 12.6377 30.7869 12.7539 30.9694 12.9863C31.1686 13.1994 31.2681 13.4609 31.2681 13.7708V14.6134H33.2841V13.7708C33.2841 13.1316 33.1514 12.5505 32.8859 12.0275C32.6204 11.4851 32.2554 11.059 31.7908 10.7491C31.3428 10.4391 30.845 10.2842 30.2975 10.2842H21.2325C20.8306 10.2842 20.451 10.3677 20.0938 10.5347V10.2842H18.0778V27.7174C18.0778 28.0273 17.9783 28.2985 17.7792 28.531C17.5967 28.744 17.3727 28.8506 17.1072 28.8506H8.27083C8.00535 28.8506 7.77305 28.744 7.57394 28.531C7.39143 28.2985 7.30017 28.0273 7.30017 27.7174V26.0613H5.28418V27.7174C5.28418 28.3566 5.41692 28.9474 5.6824 29.4898C5.94788 30.0128 6.30462 30.4293 6.75261 30.7392C7.2172 31.0491 7.72328 31.2041 8.27083 31.2041H17.1072C17.6547 31.2041 18.1525 31.0491 18.6005 30.7392C18.8091 30.6 18.9976 30.4394 19.1661 30.2573C19.3304 30.4394 19.5132 30.6 19.7143 30.7392Z" fill="url(#paint14_linear_1212_3085)"/>
<path fill-rule="evenodd" clip-rule="evenodd" d="M19.7143 30.7392C20.1789 31.0491 20.685 31.2041 21.2325 31.2041H30.2975C30.845 31.2041 31.3428 31.0491 31.7908 30.7392C32.2554 30.4293 32.6204 30.0128 32.8859 29.4898C33.1514 28.9474 33.2841 28.3566 33.2841 27.7174V20.163H26.8379V22.5456H31.2681V27.7174C31.2681 28.0273 31.1686 28.2985 30.9694 28.531C30.7869 28.744 30.5629 28.8506 30.2975 28.8506H21.2325C20.9671 28.8506 20.7348 28.744 20.5357 28.531C20.3531 28.2985 20.2619 28.0273 20.2619 27.7174V13.7708C20.2619 13.4609 20.3531 13.1994 20.5357 12.9863C20.7348 12.7539 20.9671 12.6377 21.2325 12.6377H30.2975C30.5629 12.6377 30.7869 12.7539 30.9694 12.9863C31.1686 13.1994 31.2681 13.4609 31.2681 13.7708V14.6134H33.2841V13.7708C33.2841 13.1316 33.1514 12.5505 32.8859 12.0275C32.6204 11.4851 32.2554 11.059 31.7908 10.7491C31.3428 10.4391 30.845 10.2842 30.2975 10.2842H21.2325C20.8306 10.2842 20.451 10.3677 20.0938 10.5347V10.2842H18.0778V27.7174C18.0778 28.0273 17.9783 28.2985 17.7792 28.531C17.5967 28.744 17.3727 28.8506 17.1072 28.8506H8.27083C8.00535 28.8506 7.77305 28.744 7.57394 28.531C7.39143 28.2985 7.30017 28.0273 7.30017 27.7174V26.0613H5.28418V27.7174C5.28418 28.3566 5.41692 28.9474 5.6824 29.4898C5.94788 30.0128 6.30462 30.4293 6.75261 30.7392C7.2172 31.0491 7.72328 31.2041 8.27083 31.2041H17.1072C17.6547 31.2041 18.1525 31.0491 18.6005 30.7392C18.8091 30.6 18.9976 30.4394 19.1661 30.2573C19.3304 30.4394 19.5132 30.6 19.7143 30.7392Z" fill="url(#paint15_linear_1212_3085)"/>
<path d="M19.7143 30.7392L19.4298 31.1504L19.4369 31.1551L19.7143 30.7392ZM31.7908 30.7392L31.5133 30.3232L31.5063 30.328L31.7908 30.7392ZM32.8859 29.4898L33.3318 29.7161L33.335 29.7096L32.8859 29.4898ZM33.2841 20.163H33.7841V19.663H33.2841V20.163ZM26.8379 20.163V19.663H26.3379V20.163H26.8379ZM26.8379 22.5456H26.3379V23.0456H26.8379V22.5456ZM31.2681 22.5456H31.7681V22.0456H31.2681V22.5456ZM30.9694 28.531L31.3492 28.8562L31.3492 28.8562L30.9694 28.531ZM20.5357 28.531L20.1424 28.8398L20.1557 28.8567L20.1703 28.8724L20.5357 28.531ZM20.5357 12.9863L20.9154 13.3116L20.9154 13.3116L20.5357 12.9863ZM30.9694 12.9863L30.5762 13.2951L30.5895 13.312L30.6041 13.3277L30.9694 12.9863ZM31.2681 14.6134H30.7681V15.1134H31.2681V14.6134ZM33.2841 14.6134V15.1134H33.7841V14.6134H33.2841ZM32.8859 12.0275L32.4367 12.2473L32.44 12.2538L32.8859 12.0275ZM31.7908 10.7491L31.5063 11.1603L31.5133 11.165L31.7908 10.7491ZM20.0938 10.5347H19.5938V11.3203L20.3056 10.9876L20.0938 10.5347ZM20.0938 10.2842H20.5938V9.78418H20.0938V10.2842ZM18.0778 10.2842V9.78418H17.5778V10.2842H18.0778ZM17.7792 28.531L18.1589 28.8563L18.1589 28.8562L17.7792 28.531ZM7.57394 28.531L7.18069 28.8398L7.19396 28.8567L7.20862 28.8724L7.57394 28.531ZM7.30017 26.0613H7.80017V25.5613H7.30017V26.0613ZM5.28418 26.0613V25.5613H4.78418V26.0613H5.28418ZM5.6824 29.4898L5.23327 29.7096L5.23655 29.7161L5.6824 29.4898ZM6.75261 30.7392L6.46811 31.1504L6.47514 31.1551L6.75261 30.7392ZM18.6005 30.7392L18.323 30.3232L18.316 30.328L18.6005 30.7392ZM19.1661 30.2573L19.5373 29.9223L19.1706 29.5161L18.799 29.9178L19.1661 30.2573ZM21.2325 30.7041C20.7858 30.7041 20.376 30.5795 19.9918 30.3232L19.4369 31.1551C19.9819 31.5187 20.5842 31.7041 21.2325 31.7041V30.7041ZM30.2975 30.7041H21.2325V31.7041H30.2975V30.7041ZM31.5063 30.328C31.1424 30.5798 30.7439 30.7041 30.2975 30.7041V31.7041C30.9461 31.7041 31.5432 31.5184 32.0752 31.1504L31.5063 30.328ZM32.44 29.2635C32.2114 29.7138 31.9028 30.0634 31.5133 30.3232L32.0682 31.1551C32.608 30.7951 33.0294 30.3117 33.3317 29.7161L32.44 29.2635ZM32.7841 27.7174C32.7841 28.285 32.6668 28.8 32.4368 29.27L33.335 29.7096C33.6359 29.0948 33.7841 28.4283 33.7841 27.7174H32.7841ZM32.7841 20.163V27.7174H33.7841V20.163H32.7841ZM26.8379 20.663H33.2841V19.663H26.8379V20.663ZM27.3379 22.5456V20.163H26.3379V22.5456H27.3379ZM31.2681 22.0456H26.8379V23.0456H31.2681V22.0456ZM31.7681 27.7174V22.5456H30.7681V27.7174H31.7681ZM31.3492 28.8562C31.627 28.532 31.7681 28.145 31.7681 27.7174H30.7681C30.7681 27.9097 30.7102 28.0651 30.5897 28.2057L31.3492 28.8562ZM30.2975 29.3506C30.7181 29.3506 31.0778 29.173 31.3492 28.8562L30.5897 28.2057C30.496 28.3151 30.4077 28.3506 30.2975 28.3506V29.3506ZM21.2325 29.3506H30.2975V28.3506H21.2325V29.3506ZM20.1703 28.8724C20.4537 29.1755 20.8141 29.3506 21.2325 29.3506V28.3506C21.12 28.3506 21.0159 28.3126 20.901 28.1896L20.1703 28.8724ZM19.7619 27.7174C19.7619 28.1335 19.8872 28.5147 20.1424 28.8398L20.9289 28.2222C20.8191 28.0823 20.7619 27.9212 20.7619 27.7174H19.7619ZM19.7619 13.7708V27.7174H20.7619V13.7708H19.7619ZM20.1559 12.6611C19.8875 12.9744 19.7619 13.355 19.7619 13.7708H20.7619C20.7619 13.5668 20.8188 13.4244 20.9154 13.3116L20.1559 12.6611ZM21.2325 12.1377C20.7979 12.1377 20.4339 12.3366 20.1559 12.6611L20.9154 13.3116C21.0357 13.1712 21.1362 13.1377 21.2325 13.1377V12.1377ZM30.2975 12.1377H21.2325V13.1377H30.2975V12.1377ZM31.3627 12.6775C31.0976 12.34 30.7352 12.1377 30.2975 12.1377V13.1377C30.3907 13.1377 30.4762 13.1678 30.5762 13.2951L31.3627 12.6775ZM31.7681 13.7708C31.7681 13.3429 31.6262 12.9568 31.3348 12.645L30.6041 13.3277C30.7109 13.442 30.7681 13.5789 30.7681 13.7708H31.7681ZM31.7681 14.6134V13.7708H30.7681V14.6134H31.7681ZM33.2841 14.1134H31.2681V15.1134H33.2841V14.1134ZM32.7841 13.7708V14.6134H33.7841V13.7708H32.7841ZM32.44 12.2538C32.6668 12.7005 32.7841 13.2031 32.7841 13.7708H33.7841C33.7841 13.0602 33.6359 12.4005 33.3317 11.8012L32.44 12.2538ZM31.5133 11.165C31.8984 11.4219 32.2069 11.7777 32.4368 12.2473L33.335 11.8077C33.0339 11.1926 32.6123 10.6961 32.0683 10.3331L31.5133 11.165ZM30.2975 10.7842C30.7439 10.7842 31.1424 10.9085 31.5063 11.1603L32.0752 10.3379C31.5432 9.9698 30.9461 9.78418 30.2975 9.78418V10.7842ZM21.2325 10.7842H30.2975V9.78418H21.2325V10.7842ZM20.3056 10.9876C20.5952 10.8522 20.9023 10.7842 21.2325 10.7842V9.78418C20.7589 9.78418 20.3069 9.88312 19.8821 10.0817L20.3056 10.9876ZM19.5938 10.2842V10.5347H20.5938V10.2842H19.5938ZM18.0778 10.7842H20.0938V9.78418H18.0778V10.7842ZM18.5778 27.7174V10.2842H17.5778V27.7174H18.5778ZM18.1589 28.8562C18.4367 28.532 18.5778 28.145 18.5778 27.7174H17.5778C17.5778 27.9097 17.5199 28.0651 17.3994 28.2057L18.1589 28.8562ZM17.1072 29.3506C17.5279 29.3506 17.8875 29.173 18.1589 28.8563L17.3994 28.2057C17.3058 28.3151 17.2174 28.3506 17.1072 28.3506V29.3506ZM8.27083 29.3506H17.1072V28.3506H8.27083V29.3506ZM7.20862 28.8724C7.49194 29.1755 7.8524 29.3506 8.27083 29.3506V28.3506C8.15829 28.3506 8.05417 28.3126 7.93926 28.1896L7.20862 28.8724ZM6.80017 27.7174C6.80017 28.1335 6.92548 28.5147 7.18069 28.8398L7.9672 28.2222C7.85737 28.0823 7.80017 27.9212 7.80017 27.7174H6.80017ZM6.80017 26.0613V27.7174H7.80017V26.0613H6.80017ZM5.28418 26.5613H7.30017V25.5613H5.28418V26.5613ZM5.78418 27.7174V26.0613H4.78418V27.7174H5.78418ZM6.13149 29.27C5.90146 28.8 5.78418 28.285 5.78418 27.7174H4.78418C4.78418 28.4283 4.93238 29.0948 5.23331 29.7096L6.13149 29.27ZM7.03708 30.328C6.66259 30.0689 6.35909 29.7182 6.12825 29.2635L5.23655 29.7161C5.53667 30.3074 5.94665 30.7896 6.46815 31.1504L7.03708 30.328ZM8.27083 30.7041C7.82411 30.7041 7.41426 30.5795 7.03009 30.3232L6.47514 31.1551C7.02015 31.5187 7.62244 31.7041 8.27083 31.7041V30.7041ZM17.1072 30.7041H8.27083V31.7041H17.1072V30.7041ZM18.316 30.328C17.9521 30.5798 17.5536 30.7041 17.1072 30.7041V31.7041C17.7558 31.7041 18.3529 31.5184 18.885 31.1504L18.316 30.328ZM18.799 29.9178C18.6576 30.0707 18.4992 30.2057 18.323 30.3232L18.878 31.1551C19.119 30.9944 19.3376 30.8081 19.5331 30.5968L18.799 29.9178ZM19.9988 30.328C19.8295 30.2109 19.6758 30.0758 19.5373 29.9223L18.7949 30.5923C18.985 30.803 19.1969 30.9892 19.4299 31.1504L19.9988 30.328Z" fill="black" mask="url(#path-10-outside-1_1212_3085)"/>
</g>
</g>
<defs>
<filter id="filter0_d_1212_3085" x="3.78418" y="9.78418" width="31" height="23.9199" filterUnits="userSpaceOnUse" color-interpolation-filters="sRGB">
<feFlood flood-opacity="0" result="BackgroundImageFix"/>
<feColorMatrix in="SourceAlpha" type="matrix" values="0 0 0 0 0 0 0 0 0 0 0 0 0 0 0 0 0 0 127 0" result="hardAlpha"/>
<feOffset dy="1"/>
<feGaussianBlur stdDeviation="0.5"/>
<feComposite in2="hardAlpha" operator="out"/>
<feColorMatrix type="matrix" values="0 0 0 0 0 0 0 0 0 0 0 0 0 0 0 0 0 0 0.69 0"/>
<feBlend mode="normal" in2="BackgroundImageFix" result="effect1_dropShadow_1212_3085"/>
<feBlend mode="normal" in="SourceGraphic" in2="effect1_dropShadow_1212_3085" result="shape"/>
</filter>
<linearGradient id="paint0_linear_1212_3085" x1="6.14214" y1="6.14204" x2="34.4264" y2="34.4263" gradientUnits="userSpaceOnUse">
<stop stop-color="#9DE8FF"/>
<stop offset="0.28125" stop-color="#009ACB"/>
<stop offset="0.588542" stop-color="#D0F4FF"/>
<stop offset="1" stop-color="#4ED4FF"/>
</linearGradient>
<linearGradient id="paint1_linear_1212_3085" x1="6.84916" y1="6.84908" x2="33.7192" y2="33.7191" gradientUnits="userSpaceOnUse">
<stop stop-color="#F7F7F7"/>
<stop offset="0.291667" stop-color="#969696"/>
<stop offset="0.541667" stop-color="#FCFCFC"/>
<stop offset="0.791667" stop-color="#AEAEAE"/>
<stop offset="1" stop-color="#E1E1E1"/>
</linearGradient>
<linearGradient id="paint2_linear_1212_3085" x1="8.08085" y1="8.08126" x2="32.4869" y2="32.4874" gradientUnits="userSpaceOnUse">
<stop stop-color="#9DE8FF"/>
<stop offset="0.28125" stop-color="#009ACB"/>
<stop offset="0.588542" stop-color="#D0F4FF"/>
<stop offset="1" stop-color="#4ED4FF"/>
</linearGradient>
<linearGradient id="paint3_linear_1212_3085" x1="11.6682" y1="11.6688" x2="28.899" y2="28.8996" gradientUnits="userSpaceOnUse">
<stop stop-color="#9DE8FF"/>
<stop offset="0.28125" stop-color="#009ACB"/>
<stop offset="0.588542" stop-color="#D0F4FF"/>
<stop offset="1" stop-color="#4ED4FF"/>
</linearGradient>
<linearGradient id="paint4_linear_1212_3085" x1="11.6682" y1="11.6688" x2="28.899" y2="28.8996" gradientUnits="userSpaceOnUse">
<stop stop-color="#F7F7F7"/>
<stop offset="0.291667" stop-color="#969696"/>
<stop offset="0.541667" stop-color="#FCFCFC"/>
<stop offset="0.791667" stop-color="#AEAEAE"/>
<stop offset="1" stop-color="#E1E1E1"/>
</linearGradient>
<linearGradient id="paint5_linear_1212_3085" x1="13.4552" y1="13.456" x2="27.1116" y2="27.1124" gradientUnits="userSpaceOnUse">
<stop stop-color="#F7F7F7"/>
<stop offset="0.291667" stop-color="#969696"/>
<stop offset="0.541667" stop-color="#FCFCFC"/>
<stop offset="0.791667" stop-color="#AEAEAE"/>
<stop offset="1" stop-color="#E1E1E1"/>
</linearGradient>
<linearGradient id="paint6_linear_1212_3085" x1="13.4552" y1="13.456" x2="27.1116" y2="27.1124" gradientUnits="userSpaceOnUse">
<stop stop-color="#9DE8FF"/>
<stop offset="0.28125" stop-color="#009ACB"/>
<stop offset="0.588542" stop-color="#D0F4FF"/>
<stop offset="1" stop-color="#4ED4FF"/>
</linearGradient>
<linearGradient id="paint7_linear_1212_3085" x1="15.7116" y1="15.7123" x2="24.8554" y2="24.8561" gradientUnits="userSpaceOnUse">
<stop stop-color="#F7F7F7"/>
<stop offset="0.291667" stop-color="#969696"/>
<stop offset="0.541667" stop-color="#FCFCFC"/>
<stop offset="0.791667" stop-color="#AEAEAE"/>
<stop offset="1" stop-color="#E1E1E1"/>
</linearGradient>
<linearGradient id="paint8_linear_1212_3085" x1="15.7116" y1="15.7123" x2="24.8554" y2="24.8561" gradientUnits="userSpaceOnUse">
<stop stop-color="#9DE8FF"/>
<stop offset="0.28125" stop-color="#009ACB"/>
<stop offset="0.588542" stop-color="#D0F4FF"/>
<stop offset="1" stop-color="#4ED4FF"/>
</linearGradient>
<linearGradient id="paint9_linear_1212_3085" x1="15.7116" y1="15.7123" x2="24.8554" y2="24.8561" gradientUnits="userSpaceOnUse">
<stop stop-color="#F7F7F7"/>
<stop offset="0.291667" stop-color="#969696"/>
<stop offset="0.541667" stop-color="#FCFCFC"/>
<stop offset="0.791667" stop-color="#AEAEAE"/>
<stop offset="1" stop-color="#E1E1E1"/>
</linearGradient>
<linearGradient id="paint10_linear_1212_3085" x1="19.1713" y1="20.2842" x2="19.1713" y2="25.658" gradientUnits="userSpaceOnUse">
<stop stop-color="#F7F7F7"/>
<stop offset="0.291667" stop-color="#969696"/>
<stop offset="0.541667" stop-color="#FCFCFC"/>
<stop offset="0.791667" stop-color="#AEAEAE"/>
<stop offset="1" stop-color="#E1E1E1"/>
</linearGradient>
<linearGradient id="paint11_linear_1212_3085" x1="19.1713" y1="20.2842" x2="19.1713" y2="25.658" gradientUnits="userSpaceOnUse">
<stop stop-color="#9DE8FF"/>
<stop offset="0.28125" stop-color="#009ACB"/>
<stop offset="0.588542" stop-color="#D0F4FF"/>
<stop offset="1" stop-color="#4ED4FF"/>
</linearGradient>
<linearGradient id="paint12_linear_1212_3085" x1="19.8701" y1="20.2842" x2="19.8701" y2="22.2842" gradientUnits="userSpaceOnUse">
<stop stop-color="#9DE8FF"/>
<stop offset="0.28125" stop-color="#009ACB"/>
<stop offset="0.588542" stop-color="#D0F4FF"/>
<stop offset="1" stop-color="#4ED4FF"/>
</linearGradient>
<linearGradient id="paint13_linear_1212_3085" x1="19.8701" y1="20.2842" x2="19.8701" y2="22.2842" gradientUnits="userSpaceOnUse">
<stop stop-color="#F7F7F7"/>
<stop offset="0.291667" stop-color="#969696"/>
<stop offset="0.541667" stop-color="#FCFCFC"/>
<stop offset="0.791667" stop-color="#AEAEAE"/>
<stop offset="1" stop-color="#E1E1E1"/>
</linearGradient>
<linearGradient id="paint14_linear_1212_3085" x1="31.2841" y1="11.7842" x2="6.28411" y2="31.2841" gradientUnits="userSpaceOnUse">
<stop stop-color="#00F0FF"/>
<stop offset="0.997114" stop-color="#0094FF"/>
</linearGradient>
<linearGradient id="paint15_linear_1212_3085" x1="19.2841" y1="10.2842" x2="19.2841" y2="31.2041" gradientUnits="userSpaceOnUse">
<stop stop-color="#9DE8FF"/>
<stop offset="0.28125" stop-color="#009ACB"/>
<stop offset="0.588542" stop-color="#D0F4FF"/>
<stop offset="1" stop-color="#4ED4FF"/>
</linearGradient>
</defs>
</svg>
