<svg width="40" height="40" viewBox="0 0 40 40" fill="none" xmlns="http://www.w3.org/2000/svg">
<mask id="mask0_1212_3101" style="mask-type:alpha" maskUnits="userSpaceOnUse" x="0" y="0" width="40" height="40">
<rect width="40" height="40" fill="#D9D9D9"/>
</mask>
<g mask="url(#mask0_1212_3101)">
<path d="M3.31371 8.97047L8.97056 3.31362L11.799 6.14204L14.6274 3.31362L17.4558 6.14204L20.2843 3.31362L23.1127 6.14204L25.9411 3.31362L28.7696 6.14204L31.598 3.31362L37.2548 8.97047L34.4264 11.7989L37.2548 14.6273L34.4264 17.4558L37.2548 20.2842L34.4264 23.1126L37.2548 25.941L34.4264 28.7695L37.2548 31.5979L31.598 37.2547L28.7696 34.4263L25.9411 37.2547L23.1127 34.4263L20.2843 37.2547L17.4558 34.4263L14.6274 37.2547L11.799 34.4263L8.97056 37.2547L3.31371 31.5979L6.14214 28.7695L3.31371 25.941L6.14214 23.1126L3.31371 20.2842L6.14214 17.4558L3.31371 14.6273L6.14214 11.7989L3.31371 8.97047Z" fill="white"/>
<path d="M3.31371 8.97047L8.97056 3.31362L11.799 6.14204L14.6274 3.31362L17.4558 6.14204L20.2843 3.31362L23.1127 6.14204L25.9411 3.31362L28.7696 6.14204L31.598 3.31362L37.2548 8.97047L34.4264 11.7989L37.2548 14.6273L34.4264 17.4558L37.2548 20.2842L34.4264 23.1126L37.2548 25.941L34.4264 28.7695L37.2548 31.5979L31.598 37.2547L28.7696 34.4263L25.9411 37.2547L23.1127 34.4263L20.2843 37.2547L17.4558 34.4263L14.6274 37.2547L11.799 34.4263L8.97056 37.2547L3.31371 31.5979L6.14214 28.7695L3.31371 25.941L6.14214 23.1126L3.31371 20.2842L6.14214 17.4558L3.31371 14.6273L6.14214 11.7989L3.31371 8.97047Z" fill="url(#paint0_linear_1212_3101)"/>
<path d="M3.31371 8.97047L8.97056 3.31362L11.799 6.14204L14.6274 3.31362L17.4558 6.14204L20.2843 3.31362L23.1127 6.14204L25.9411 3.31362L28.7696 6.14204L31.598 3.31362L37.2548 8.97047L34.4264 11.7989L37.2548 14.6273L34.4264 17.4558L37.2548 20.2842L34.4264 23.1126L37.2548 25.941L34.4264 28.7695L37.2548 31.5979L31.598 37.2547L28.7696 34.4263L25.9411 37.2547L23.1127 34.4263L20.2843 37.2547L17.4558 34.4263L14.6274 37.2547L11.799 34.4263L8.97056 37.2547L3.31371 31.5979L6.14214 28.7695L3.31371 25.941L6.14214 23.1126L3.31371 20.2842L6.14214 17.4558L3.31371 14.6273L6.14214 11.7989L3.31371 8.97047Z" fill="url(#paint1_linear_1212_3101)"/>
<path d="M3.31371 8.97047L8.97056 3.31362L11.799 6.14204L14.6274 3.31362L17.4558 6.14204L20.2843 3.31362L23.1127 6.14204L25.9411 3.31362L28.7696 6.14204L31.598 3.31362L37.2548 8.97047L34.4264 11.7989L37.2548 14.6273L34.4264 17.4558L37.2548 20.2842L34.4264 23.1126L37.2548 25.941L34.4264 28.7695L37.2548 31.5979L31.598 37.2547L28.7696 34.4263L25.9411 37.2547L23.1127 34.4263L20.2843 37.2547L17.4558 34.4263L14.6274 37.2547L11.799 34.4263L8.97056 37.2547L3.31371 31.5979L6.14214 28.7695L3.31371 25.941L6.14214 23.1126L3.31371 20.2842L6.14214 17.4558L3.31371 14.6273L6.14214 11.7989L3.31371 8.97047Z" fill="url(#paint2_linear_1212_3101)"/>
<mask id="mask1_1212_3101" style="mask-type:alpha" maskUnits="userSpaceOnUse" x="3" y="3" width="35" height="35">
<path d="M3.31371 8.97047L8.97056 3.31362L11.799 6.14204L14.6274 3.31362L17.4558 6.14204L20.2843 3.31362L23.1127 6.14204L25.9411 3.31362L28.7696 6.14204L31.598 3.31362L37.2548 8.97047L34.4264 11.7989L37.2548 14.6273L34.4264 17.4558L37.2548 20.2842L34.4264 23.1126L37.2548 25.941L34.4264 28.7695L37.2548 31.5979L31.598 37.2547L28.7696 34.4263L25.9411 37.2547L23.1127 34.4263L20.2843 37.2547L17.4558 34.4263L14.6274 37.2547L11.799 34.4263L8.97056 37.2547L3.31371 31.5979L6.14214 28.7695L3.31371 25.941L6.14214 23.1126L3.31371 20.2842L6.14214 17.4558L3.31371 14.6273L6.14214 11.7989L3.31371 8.97047Z" fill="white"/>
<path d="M3.31371 8.97047L8.97056 3.31362L11.799 6.14204L14.6274 3.31362L17.4558 6.14204L20.2843 3.31362L23.1127 6.14204L25.9411 3.31362L28.7696 6.14204L31.598 3.31362L37.2548 8.97047L34.4264 11.7989L37.2548 14.6273L34.4264 17.4558L37.2548 20.2842L34.4264 23.1126L37.2548 25.941L34.4264 28.7695L37.2548 31.5979L31.598 37.2547L28.7696 34.4263L25.9411 37.2547L23.1127 34.4263L20.2843 37.2547L17.4558 34.4263L14.6274 37.2547L11.799 34.4263L8.97056 37.2547L3.31371 31.5979L6.14214 28.7695L3.31371 25.941L6.14214 23.1126L3.31371 20.2842L6.14214 17.4558L3.31371 14.6273L6.14214 11.7989L3.31371 8.97047Z" fill="url(#paint3_linear_1212_3101)"/>
</mask>
<g mask="url(#mask1_1212_3101)">
<path fill-rule="evenodd" clip-rule="evenodd" d="M5.5 9.5V1H6.5V10.5H2V9.5H5.5ZM7.5 11.5V1H8.5V12.5H2V11.5H7.5ZM9.5 1H10.5V11.5H18.5V19.5H24.3062V26.5H29.5V37H28.5V27.5H23.3062V20.5H17.5V12.5H9.5V1ZM11.5 1H12.5V9.5H20.5V17.5H27.5V9.5H35.5V1.5H36.5V10.5H28.5V18.5H19.5V10.5H11.5V1ZM13.5 1H14.5V7H22.5V15H26V6.5H33.5V1.5H34.5V7.5H27V16H21.5V8H13.5V1ZM15.5 1.5H16.5V4.5H31.5V1.5H32.5V5.5H25V14H23V5.5H15.5V1.5ZM17.5 1.5H18.5V2.5H29V1.5H30V3.5H17.5V1.5ZM30 11.5H36V12.5H31V20.5H26V24.5H31.5V37H30.5V25.5H25V19.5H30V11.5ZM15 14.5H2V13.5H16V22H22.5V27.5H7.5V37.5H6.5V26.5H21.5V23H15V14.5ZM32.5 13.5H37V14.5H33.5V22H28V22.5H33.5V37H32.5V23.5H27V21H32.5V13.5ZM12.5 16.5H2.5V15.5H13.5V23.5H21V26H5.5V37.5H4.5V25H20V24.5H12.5V16.5ZM34 15.5H37V16.5H35V36H37V37H34V15.5ZM10.5 18.5H2.5V17.5H11.5V24.5H3.5V37H2.5V23.5H10.5V18.5ZM36 35V17.5H37V35H36ZM8.5 20.5H3V19.5H9.5V23H3.5V22H8.5V20.5ZM8.5 28.5H11.5V37H13V28.5H16.5V37.5H18V28.5H22V37.5H22.5V29H25.5V37.5H26.5V29H27.5V38.5H24.5V30H23.5V38.5H21V29.5H19V38.5H15.5V29.5H14V38H10.5V29.5H9.5V38H8.5V28.5Z" fill="url(#paint4_linear_1212_3101)" stroke="black" stroke-width="0.05"/>
</g>
<g filter="url(#filter0_d_1212_3101)">
<mask id="path-5-outside-1_1212_3101" maskUnits="userSpaceOnUse" x="5" y="8" width="30" height="23" fill="black">
<rect fill="white" x="5" y="8" width="30" height="23"/>
<path fill-rule="evenodd" clip-rule="evenodd" d="M20.4302 29.455C20.8947 29.7649 21.4008 29.9199 21.9484 29.9199H31.0133C31.5608 29.9199 32.0586 29.7649 32.5066 29.455C32.9712 29.1451 33.3362 28.7286 33.6017 28.2056C33.8672 27.6633 33.9999 27.0725 33.9999 26.4332V18.8788H27.5537V21.2614H31.9839V26.4332C31.9839 26.7432 31.8844 27.0143 31.6853 27.2468C31.5028 27.4599 31.2788 27.5664 31.0133 27.5664H21.9484C21.6829 27.5664 21.4506 27.4599 21.2515 27.2468C21.069 27.0143 20.9777 26.7432 20.9777 26.4332V12.4866C20.9777 12.1767 21.069 11.9152 21.2515 11.7022C21.4506 11.4697 21.6829 11.3535 21.9484 11.3535H31.0133C31.2788 11.3535 31.5028 11.4697 31.6853 11.7022C31.8844 11.9152 31.9839 12.1767 31.9839 12.4866V13.3293H33.9999V12.4866C33.9999 11.8474 33.8672 11.2663 33.6017 10.7433C33.3362 10.201 32.9712 9.77481 32.5066 9.46489C32.0586 9.15496 31.5608 9 31.0133 9H21.9484C21.5464 9 21.1669 9.08349 20.8096 9.25048V9H18.7937V26.4332C18.7937 26.7432 18.6941 27.0144 18.495 27.2468C18.3125 27.4599 18.0885 27.5664 17.823 27.5664H8.98665C8.72117 27.5664 8.48887 27.4599 8.28976 27.2468C8.10725 27.0144 8.01599 26.7432 8.01599 26.4332V24.7771H6V26.4332C6 27.0725 6.13274 27.6633 6.39822 28.2056C6.6637 28.7286 7.02044 29.1451 7.46844 29.455C7.93302 29.7649 8.4391 29.9199 8.98665 29.9199H17.823C18.3706 29.9199 18.8683 29.7649 19.3163 29.455C19.5249 29.3158 19.7134 29.1552 19.8819 28.9731C20.0463 29.1552 20.229 29.3158 20.4302 29.455Z"/>
</mask>
<path fill-rule="evenodd" clip-rule="evenodd" d="M20.4302 29.455C20.8947 29.7649 21.4008 29.9199 21.9484 29.9199H31.0133C31.5608 29.9199 32.0586 29.7649 32.5066 29.455C32.9712 29.1451 33.3362 28.7286 33.6017 28.2056C33.8672 27.6633 33.9999 27.0725 33.9999 26.4332V18.8788H27.5537V21.2614H31.9839V26.4332C31.9839 26.7432 31.8844 27.0143 31.6853 27.2468C31.5028 27.4599 31.2788 27.5664 31.0133 27.5664H21.9484C21.6829 27.5664 21.4506 27.4599 21.2515 27.2468C21.069 27.0143 20.9777 26.7432 20.9777 26.4332V12.4866C20.9777 12.1767 21.069 11.9152 21.2515 11.7022C21.4506 11.4697 21.6829 11.3535 21.9484 11.3535H31.0133C31.2788 11.3535 31.5028 11.4697 31.6853 11.7022C31.8844 11.9152 31.9839 12.1767 31.9839 12.4866V13.3293H33.9999V12.4866C33.9999 11.8474 33.8672 11.2663 33.6017 10.7433C33.3362 10.201 32.9712 9.77481 32.5066 9.46489C32.0586 9.15496 31.5608 9 31.0133 9H21.9484C21.5464 9 21.1669 9.08349 20.8096 9.25048V9H18.7937V26.4332C18.7937 26.7432 18.6941 27.0144 18.495 27.2468C18.3125 27.4599 18.0885 27.5664 17.823 27.5664H8.98665C8.72117 27.5664 8.48887 27.4599 8.28976 27.2468C8.10725 27.0144 8.01599 26.7432 8.01599 26.4332V24.7771H6V26.4332C6 27.0725 6.13274 27.6633 6.39822 28.2056C6.6637 28.7286 7.02044 29.1451 7.46844 29.455C7.93302 29.7649 8.4391 29.9199 8.98665 29.9199H17.823C18.3706 29.9199 18.8683 29.7649 19.3163 29.455C19.5249 29.3158 19.7134 29.1552 19.8819 28.9731C20.0463 29.1552 20.229 29.3158 20.4302 29.455Z" fill="url(#paint5_linear_1212_3101)"/>
<path fill-rule="evenodd" clip-rule="evenodd" d="M20.4302 29.455C20.8947 29.7649 21.4008 29.9199 21.9484 29.9199H31.0133C31.5608 29.9199 32.0586 29.7649 32.5066 29.455C32.9712 29.1451 33.3362 28.7286 33.6017 28.2056C33.8672 27.6633 33.9999 27.0725 33.9999 26.4332V18.8788H27.5537V21.2614H31.9839V26.4332C31.9839 26.7432 31.8844 27.0143 31.6853 27.2468C31.5028 27.4599 31.2788 27.5664 31.0133 27.5664H21.9484C21.6829 27.5664 21.4506 27.4599 21.2515 27.2468C21.069 27.0143 20.9777 26.7432 20.9777 26.4332V12.4866C20.9777 12.1767 21.069 11.9152 21.2515 11.7022C21.4506 11.4697 21.6829 11.3535 21.9484 11.3535H31.0133C31.2788 11.3535 31.5028 11.4697 31.6853 11.7022C31.8844 11.9152 31.9839 12.1767 31.9839 12.4866V13.3293H33.9999V12.4866C33.9999 11.8474 33.8672 11.2663 33.6017 10.7433C33.3362 10.201 32.9712 9.77481 32.5066 9.46489C32.0586 9.15496 31.5608 9 31.0133 9H21.9484C21.5464 9 21.1669 9.08349 20.8096 9.25048V9H18.7937V26.4332C18.7937 26.7432 18.6941 27.0144 18.495 27.2468C18.3125 27.4599 18.0885 27.5664 17.823 27.5664H8.98665C8.72117 27.5664 8.48887 27.4599 8.28976 27.2468C8.10725 27.0144 8.01599 26.7432 8.01599 26.4332V24.7771H6V26.4332C6 27.0725 6.13274 27.6633 6.39822 28.2056C6.6637 28.7286 7.02044 29.1451 7.46844 29.455C7.93302 29.7649 8.4391 29.9199 8.98665 29.9199H17.823C18.3706 29.9199 18.8683 29.7649 19.3163 29.455C19.5249 29.3158 19.7134 29.1552 19.8819 28.9731C20.0463 29.1552 20.229 29.3158 20.4302 29.455Z" fill="url(#paint6_linear_1212_3101)"/>
<path d="M20.4302 29.455L20.1456 29.8663L20.1527 29.8709L20.4302 29.455ZM32.5066 29.455L32.2291 29.039L32.2221 29.0438L32.5066 29.455ZM33.6017 28.2056L34.0476 28.432L34.0508 28.4254L33.6017 28.2056ZM33.9999 18.8788H34.4999V18.3788H33.9999V18.8788ZM27.5537 18.8788V18.3788H27.0537V18.8788H27.5537ZM27.5537 21.2614H27.0537V21.7614H27.5537V21.2614ZM31.9839 21.2614H32.4839V20.7614H31.9839V21.2614ZM31.6853 27.2468L32.065 27.5721L32.065 27.5721L31.6853 27.2468ZM21.2515 27.2468L20.8582 27.5556L20.8715 27.5725L20.8862 27.5882L21.2515 27.2468ZM21.2515 11.7022L21.6312 12.0274L21.6312 12.0274L21.2515 11.7022ZM31.6853 11.7022L31.292 12.0109L31.3053 12.0278L31.3199 12.0435L31.6853 11.7022ZM31.9839 13.3293H31.4839V13.8293H31.9839V13.3293ZM33.9999 13.3293V13.8293H34.4999V13.3293H33.9999ZM33.6017 10.7433L33.1526 10.9632L33.1559 10.9696L33.6017 10.7433ZM32.5066 9.46489L32.2221 9.87614L32.2291 9.88083L32.5066 9.46489ZM20.8096 9.25048H20.3096V10.0362L21.0214 9.70344L20.8096 9.25048ZM20.8096 9H21.3096V8.5H20.8096V9ZM18.7937 9V8.5H18.2937V9H18.7937ZM18.495 27.2468L18.8747 27.5721L18.8747 27.5721L18.495 27.2468ZM8.28976 27.2468L7.89651 27.5556L7.90978 27.5725L7.92444 27.5882L8.28976 27.2468ZM8.01599 24.7771H8.51599V24.2771H8.01599V24.7771ZM6 24.7771V24.2771H5.5V24.7771H6ZM6.39822 28.2056L5.94909 28.4255L5.95237 28.4319L6.39822 28.2056ZM7.46844 29.455L7.18393 29.8663L7.19096 29.8709L7.46844 29.455ZM19.3163 29.455L19.0388 29.039L19.0319 29.0438L19.3163 29.455ZM19.8819 28.9731L20.2531 28.6381L19.8864 28.2319L19.5149 28.6336L19.8819 28.9731ZM21.9484 29.4199C21.5016 29.4199 21.0918 29.2953 20.7076 29.0391L20.1527 29.8709C20.6977 30.2345 21.3 30.4199 21.9484 30.4199V29.4199ZM31.0133 29.4199H21.9484V30.4199H31.0133V29.4199ZM32.2221 29.0438C31.8582 29.2956 31.4597 29.4199 31.0133 29.4199V30.4199C31.6619 30.4199 32.259 30.2343 32.7911 29.8662L32.2221 29.0438ZM33.1559 27.9793C32.9272 28.4297 32.6186 28.7792 32.2291 29.0391L32.7841 29.8709C33.3238 29.5109 33.7452 29.0276 34.0476 28.4319L33.1559 27.9793ZM33.4999 26.4332C33.4999 27.0008 33.3826 27.5159 33.1526 27.9858L34.0508 28.4254C34.3517 27.8106 34.4999 27.1441 34.4999 26.4332H33.4999ZM33.4999 18.8788V26.4332H34.4999V18.8788H33.4999ZM27.5537 19.3788H33.9999V18.3788H27.5537V19.3788ZM28.0537 21.2614V18.8788H27.0537V21.2614H28.0537ZM31.9839 20.7614H27.5537V21.7614H31.9839V20.7614ZM32.4839 26.4332V21.2614H31.4839V26.4332H32.4839ZM32.065 27.5721C32.3428 27.2478 32.4839 26.8608 32.4839 26.4332H31.4839C31.4839 26.6255 31.426 26.7809 31.3055 26.9215L32.065 27.5721ZM31.0133 28.0664C31.434 28.0664 31.7936 27.8889 32.065 27.5721L31.3055 26.9215C31.2119 27.0309 31.1235 27.0664 31.0133 27.0664V28.0664ZM21.9484 28.0664H31.0133V27.0664H21.9484V28.0664ZM20.8862 27.5882C21.1695 27.8914 21.5299 28.0664 21.9484 28.0664V27.0664C21.8358 27.0664 21.7317 27.0284 21.6168 26.9054L20.8862 27.5882ZM20.4777 26.4332C20.4777 26.8493 20.603 27.2306 20.8582 27.5556L21.6447 26.938C21.5349 26.7981 21.4777 26.637 21.4777 26.4332H20.4777ZM20.4777 12.4866V26.4332H21.4777V12.4866H20.4777ZM20.8717 11.3769C20.6033 11.6902 20.4777 12.0708 20.4777 12.4866H21.4777C21.4777 12.2826 21.5346 12.1402 21.6312 12.0274L20.8717 11.3769ZM21.9484 10.8535C21.5138 10.8535 21.1497 11.0524 20.8717 11.3769L21.6312 12.0274C21.7515 11.887 21.852 11.8535 21.9484 11.8535V10.8535ZM31.0133 10.8535H21.9484V11.8535H31.0133V10.8535ZM32.0785 11.3934C31.8135 11.0558 31.451 10.8535 31.0133 10.8535V11.8535C31.1065 11.8535 31.192 11.8836 31.292 12.0109L32.0785 11.3934ZM32.4839 12.4866C32.4839 12.0587 32.342 11.6726 32.0506 11.3608L31.3199 12.0435C31.4267 12.1578 31.4839 12.2947 31.4839 12.4866H32.4839ZM32.4839 13.3293V12.4866H31.4839V13.3293H32.4839ZM33.9999 12.8293H31.9839V13.8293H33.9999V12.8293ZM33.4999 12.4866V13.3293H34.4999V12.4866H33.4999ZM33.1559 10.9696C33.3826 11.4164 33.4999 11.9189 33.4999 12.4866H34.4999C34.4999 11.776 34.3518 11.1163 34.0476 10.517L33.1559 10.9696ZM32.2291 9.88083C32.6142 10.1377 32.9227 10.4935 33.1526 10.9631L34.0508 10.5235C33.7497 9.9084 33.3281 9.41188 32.7841 9.04894L32.2291 9.88083ZM31.0133 9.5C31.4597 9.5 31.8582 9.6243 32.2221 9.87608L32.7911 9.05369C32.259 8.68562 31.6619 8.5 31.0133 8.5V9.5ZM21.9484 9.5H31.0133V8.5H21.9484V9.5ZM21.0214 9.70344C21.311 9.56804 21.6182 9.5 21.9484 9.5V8.5C21.4747 8.5 21.0227 8.59894 20.5979 8.79753L21.0214 9.70344ZM20.3096 9V9.25048H21.3096V9H20.3096ZM18.7937 9.5H20.8096V8.5H18.7937V9.5ZM19.2937 26.4332V9H18.2937V26.4332H19.2937ZM18.8747 27.5721C19.1525 27.2478 19.2937 26.8608 19.2937 26.4332H18.2937C18.2937 26.6255 18.2357 26.7809 18.1153 26.9215L18.8747 27.5721ZM17.823 28.0664C18.2437 28.0664 18.6034 27.8889 18.8747 27.5721L18.1153 26.9215C18.0216 27.0309 17.9333 27.0664 17.823 27.0664V28.0664ZM8.98665 28.0664H17.823V27.0664H8.98665V28.0664ZM7.92444 27.5882C8.20776 27.8914 8.56822 28.0664 8.98665 28.0664V27.0664C8.87412 27.0664 8.76999 27.0284 8.65508 26.9054L7.92444 27.5882ZM7.51599 26.4332C7.51599 26.8493 7.6413 27.2306 7.89651 27.5556L8.68302 26.938C8.57319 26.7981 8.51599 26.6371 8.51599 26.4332H7.51599ZM7.51599 24.7771V26.4332H8.51599V24.7771H7.51599ZM6 25.2771H8.01599V24.2771H6V25.2771ZM6.5 26.4332V24.7771H5.5V26.4332H6.5ZM6.84731 27.9858C6.61728 27.5159 6.5 27.0008 6.5 26.4332H5.5C5.5 27.1441 5.6482 27.8106 5.94913 28.4254L6.84731 27.9858ZM7.7529 29.0438C7.37841 28.7847 7.07491 28.4341 6.84407 27.9793L5.95237 28.4319C6.25249 29.0232 6.66247 29.5054 7.18397 29.8662L7.7529 29.0438ZM8.98665 29.4199C8.53993 29.4199 8.13008 29.2953 7.74591 29.0391L7.19096 29.8709C7.73597 30.2345 8.33826 30.4199 8.98665 30.4199V29.4199ZM17.823 29.4199H8.98665V30.4199H17.823V29.4199ZM19.0319 29.0438C18.6679 29.2956 18.2695 29.4199 17.823 29.4199V30.4199C18.4716 30.4199 19.0687 30.2343 19.6008 29.8662L19.0319 29.0438ZM19.5149 28.6336C19.3734 28.7865 19.215 28.9215 19.0389 29.0391L19.5938 29.8709C19.8348 29.7102 20.0535 29.524 20.2489 29.3126L19.5149 28.6336ZM20.7146 29.0438C20.5453 28.9267 20.3916 28.7916 20.2531 28.6381L19.5107 29.3081C19.7009 29.5188 19.9127 29.705 20.1457 29.8662L20.7146 29.0438Z" fill="black" mask="url(#path-5-outside-1_1212_3101)"/>
</g>
<path d="M9.14734 3.13684L8.97056 2.96006L8.79379 3.13684L3.13693 8.79369L2.96015 8.97047L3.13693 9.14725L5.78858 11.7989L3.13693 14.4505L2.96015 14.6273L3.13693 14.8041L5.78858 17.4558L3.13693 20.1074L2.96015 20.2842L3.13693 20.461L5.78858 23.1126L3.13693 25.7643L2.96015 25.941L3.13693 26.1178L5.78858 28.7695L3.13693 31.4211L2.96015 31.5979L3.13693 31.7747L8.79379 37.4315L8.97056 37.6083L9.14734 37.4315L11.799 34.7799L14.4506 37.4315L14.6274 37.6083L14.8042 37.4315L17.4558 34.7799L20.1075 37.4315L20.2843 37.6083L20.461 37.4315L23.1127 34.7799L25.7643 37.4315L25.9411 37.6083L26.1179 37.4315L28.7696 34.7799L31.4212 37.4315L31.598 37.6083L31.7748 37.4315L37.4316 31.7747L37.6084 31.5979L37.4316 31.4211L34.78 28.7695L37.4316 26.1178L37.6084 25.941L37.4316 25.7643L34.78 23.1126L37.4316 20.461L37.6084 20.2842L37.4316 20.1074L34.78 17.4558L37.4316 14.8041L37.6084 14.6273L37.4316 14.4505L34.78 11.7989L37.4316 9.14725L37.6084 8.97047L37.4316 8.79369L31.7748 3.13684L31.598 2.96006L31.4212 3.13684L28.7696 5.78849L26.1179 3.13684L25.9411 2.96006L25.7643 3.13684L23.1127 5.78849L20.461 3.13684L20.2843 2.96006L20.1075 3.13684L17.4558 5.78849L14.8042 3.13684L14.6274 2.96006L14.4506 3.13684L11.799 5.78849L9.14734 3.13684Z" stroke="black" stroke-width="0.5"/>
</g>
<defs>
<filter id="filter0_d_1212_3101" x="4.5" y="8.5" width="31" height="23.9199" filterUnits="userSpaceOnUse" color-interpolation-filters="sRGB">
<feFlood flood-opacity="0" result="BackgroundImageFix"/>
<feColorMatrix in="SourceAlpha" type="matrix" values="0 0 0 0 0 0 0 0 0 0 0 0 0 0 0 0 0 0 127 0" result="hardAlpha"/>
<feOffset dy="1"/>
<feGaussianBlur stdDeviation="0.5"/>
<feComposite in2="hardAlpha" operator="out"/>
<feColorMatrix type="matrix" values="0 0 0 0 0 0 0 0 0 0 0 0 0 0 0 0 0 0 0.69 0"/>
<feBlend mode="normal" in2="BackgroundImageFix" result="effect1_dropShadow_1212_3101"/>
<feBlend mode="normal" in="SourceGraphic" in2="effect1_dropShadow_1212_3101" result="shape"/>
</filter>
<linearGradient id="paint0_linear_1212_3101" x1="23.4663" y1="-4.81811" x2="23.4663" y2="43.2652" gradientUnits="userSpaceOnUse">
<stop stop-color="#F7F7F7"/>
<stop offset="0.291667" stop-color="#969696"/>
<stop offset="0.541667" stop-color="#FCFCFC"/>
<stop offset="0.791667" stop-color="#AEAEAE"/>
<stop offset="1" stop-color="#E1E1E1"/>
</linearGradient>
<linearGradient id="paint1_linear_1212_3101" x1="6.14214" y1="6.14204" x2="34.4264" y2="34.4263" gradientUnits="userSpaceOnUse">
<stop stop-color="#F7F7F7"/>
<stop offset="0.291667" stop-color="#969696"/>
<stop offset="0.541667" stop-color="#FCFCFC"/>
<stop offset="0.791667" stop-color="#AEAEAE"/>
<stop offset="1" stop-color="#E1E1E1"/>
</linearGradient>
<linearGradient id="paint2_linear_1212_3101" x1="6.14214" y1="6.14204" x2="34.4264" y2="34.4263" gradientUnits="userSpaceOnUse">
<stop stop-color="#9DE8FF"/>
<stop offset="0.28125" stop-color="#009ACB"/>
<stop offset="0.588542" stop-color="#D0F4FF"/>
<stop offset="1" stop-color="#4ED4FF"/>
</linearGradient>
<linearGradient id="paint3_linear_1212_3101" x1="6.14214" y1="6.14204" x2="34.4264" y2="34.4263" gradientUnits="userSpaceOnUse">
<stop stop-color="#F7F7F7"/>
<stop offset="0.291667" stop-color="#969696"/>
<stop offset="0.541667" stop-color="#FCFCFC"/>
<stop offset="0.791667" stop-color="#AEAEAE"/>
<stop offset="1" stop-color="#E1E1E1"/>
</linearGradient>
<linearGradient id="paint4_linear_1212_3101" x1="37" y1="1" x2="2.5" y2="37.5" gradientUnits="userSpaceOnUse">
<stop stop-color="#F7F7F7"/>
<stop offset="0.291667" stop-color="#969696"/>
<stop offset="0.541667" stop-color="#FCFCFC"/>
<stop offset="0.791667" stop-color="#AEAEAE"/>
<stop offset="1" stop-color="#E1E1E1"/>
</linearGradient>
<linearGradient id="paint5_linear_1212_3101" x1="31.9999" y1="10.5" x2="6.99993" y2="29.9999" gradientUnits="userSpaceOnUse">
<stop stop-color="#5FC2C8"/>
<stop offset="0.997114" stop-color="#1985D3"/>
</linearGradient>
<linearGradient id="paint6_linear_1212_3101" x1="19.9999" y1="9" x2="19.9999" y2="29.9199" gradientUnits="userSpaceOnUse">
<stop stop-color="#9DE8FF"/>
<stop offset="0.28125" stop-color="#009ACB"/>
<stop offset="0.588542" stop-color="#D0F4FF"/>
<stop offset="1" stop-color="#4ED4FF"/>
</linearGradient>
</defs>
</svg>
